{
  "accessors": [
    {
      "bufferView": 2,
      "componentType": 5126,
      "count": 1793,
      "max": [
        1.3517415523529053,
        1.4984866380691528,
        2.732266902923584
      ],
      "min": [
        -1.3517415523529053,
        -1.0653820037841797,
        -0.562355637550354
      ],
      "type": "VEC3"
    },
    {
      "bufferView": 2,
      "byteOffset": 21516,
      "componentType": 5126,
      "count": 1793,
      "max": [
        0.9982555508613586,
        0.9953116774559021,
        0.9999217391014099
      ],
      "min": [
        -0.9982556104660034,
        -0.9999280571937561,
        -0.999022364616394
      ],
      "type": "VEC3"
    },
    {
      "bufferView": 1,
      "componentType": 5126,
      "count": 1793,
      "max": [
        0.6250001788139343,
        0.8750104308128357
      ],
      "min": [
        0.0,
        0.0
      ],
      "type": "VEC2"
    },
    {
      "bufferView": 0,
      "componentType": 5125,
      "count": 9078,
      "type": "SCALAR"
    },
    {
      "bufferView": 2,
      "byteOffset": 43032,
      "componentType": 5126,
      "count": 1316,
      "max": [
        0.5108404159545898,
        -0.2930941879749298,
        1.6512268781661987
      ],
      "min": [
        -0.5108404159545898,
        -0.6147801876068115,
        1.320573329925537
      ],
      "type": "VEC3"
    },
    {
      "bufferView": 2,
      "byteOffset": 58824,
      "componentType": 5126,
      "count": 1316,
      "max": [
        1.0,
        1.0,
        1.0
      ],
      "min": [
        -1.0,
        -1.0,
        -1.0
      ],
      "type": "VEC3"
    },
    {
      "bufferView": 1,
      "byteOffset": 14344,
      "componentType": 5126,
      "count": 1316,
      "max": [
        1.000000238418579,
        1.0
      ],
      "min": [
        0.0,
        0.0
      ],
      "type": "VEC2"
    },
    {
      "bufferView": 0,
      "byteOffset": 36312,
      "componentType": 5125,
      "count": 6144,
      "type": "SCALAR"
    }
  ],
  "asset": {
    "extras": {
      "author": "Kiiba (https://sketchfab.com/keebie)",
      "license": "CC-BY-4.0 (http://creativecommons.org/licenses/by/4.0/)",
      "source": "https://sketchfab.com/3d-models/face-low-poly-3acc7ff4dd0f4f1dac1a377913af34ca",
      "title": "Face Low Poly"
    },
    "generator": "Sketchfab-12.68.0",
    "version": "2.0"
  },
  "bufferViews": [
    {
      "buffer": 0,
      "byteLength": 60888,
      "name": "floatBufferViews",
      "target": 34963
    },
    {
      "buffer": 0,
      "byteLength": 24872,
      "byteOffset": 60888,
      "byteStride": 8,
      "name": "floatBufferViews",
      "target": 34962
    },
    {
      "buffer": 0,
      "byteLength": 74616,
      "byteOffset": 85760,
      "byteStride": 12,
      "name": "floatBufferViews",
      "target": 34962
    }
  ],
  "buffers": [
    {
      "byteLength": 160376,
      "uri": "scene.bin"
    }
  ],
  "extensionsUsed": [
    "KHR_materials_clearcoat"
  ],
  "materials": [
    {
      "doubleSided": true,
      "extensions": {
        "KHR_materials_clearcoat": {
          "clearcoatFactor": 0.4942040749320541,
          "clearcoatRoughnessFactor": 0.04
        }
      },
      "name": "Sphere__0",
      "pbrMetallicRoughness": {
        "metallicFactor": 0.0,
        "roughnessFactor": 0.6
      }
    },
    {
      "doubleSided": true,
      "name": "Material",
      "pbrMetallicRoughness": {
        "metallicFactor": 0.1050729924788258,
        "roughnessFactor": 0.683772234
      }
    }
  ],
  "meshes": [
    {
      "name": "Cube_Material_0",
      "primitives": [
        {
          "attributes": {
            "NORMAL": 1,
            "POSITION": 0,
            "TEXCOORD_0": 2
          },
          "indices": 3,
          "material": 1,
          "mode": 4
        }
      ]
    },
    {
      "name": "Sphere__0",
      "primitives": [
        {
          "attributes": {
            "NORMAL": 5,
            "POSITION": 4,
            "TEXCOORD_0": 6
          },
          "indices": 7,
          "material": 0,
          "mode": 4
        }
      ]
    }
  ],
  "nodes": [
    {
      "children": [
        1
      ],
      "matrix": [
        0.000992383575066924,
        0.0,
        0.0,
        0.0,
        0.0,
        2.203534188598253e-19,
        -0.000992383575066924,
        0.0,
        0.0,
        0.000992383575066924,
        2.203534188598253e-19,
        0.0,
        0.0,
        0.0,
        0.0,
        1.0
      ],
      "name": "Sketchfab_model"
    },
    {
      "children": [
        2
      ],
      "matrix": [
        1.0,
        0.0,
        0.0,
        0.0,
        0.0,
        0.0,
        1.0,
        0.0,
        0.0,
        -1.0,
        0.0,
        0.0,
        0.0,
        0.0,
        0.0,
        1.0
      ],
      "name": "ab91e2f103894e528d7e2c91371195d3.fbx"
    },
    {
      "children": [
        3,
        5
      ],
      "name": "RootNode"
    },
    {
      "children": [
        4
      ],
      "matrix": [
        100.0,
        0.0,
        0.0,
        0.0,
        0.0,
        -1.629206793918314e-05,
        -99.99999999999868,
        0.0,
        0.0,
        99.99999999999868,
        -1.629206793918314e-05,
        0.0,
        0.0,
        0.0,
        2.951482057571411,
        1.0
      ],
      "name": "Cube"
    },
    {
      "mesh": 0,
      "name": "Cube_Material_0"
    },
    {
      "children": [
        6
      ],
      "matrix": [
        108.31082153320313,
        0.0,
        0.0,
        0.0,
        0.0,
        -1.7646072629676856e-05,
        -108.31082153320169,
        0.0,
        0.0,
        108.31082153320169,
        -1.7646072629676856e-05,
        0.0,
        2.9802322387695313e-06,
        1.1920928955078125e-05,
        0.0,
        1.0
      ],
      "name": "Sphere"
    },
    {
      "mesh": 1,
      "name": "Sphere__0"
    }
  ],
  "scene": 0,
  "scenes": [
    {
      "name": "Sketchfab_Scene",
      "nodes": [
        0
      ]
    }
  ]
}
